<svg width="458" height="458" viewBox="0 0 458 458" fill="none" xmlns="http://www.w3.org/2000/svg">
<circle cx="229" cy="229" r="219.5" fill="#700707" stroke="white" stroke-width="19"/>
<path d="M280.28 324.487L223.416 241.87L215.318 230.109L149.335 134.241H177.718L231.08 211.772L239.177 223.532L308.663 324.487H280.28ZM320.396 316.417L248.776 212.367L240.679 200.599L189.446 126.169L185.2 120H122.246L137.6 142.311L205.719 241.287L213.816 253.042L268.549 332.567L272.796 338.728H335.75L320.396 316.417Z" fill="#FF9A00"/>
<path d="M215.318 230.109L223.416 241.87L213.816 253.042L140.163 338.728H122L205.719 241.287L215.318 230.109Z" fill="#FF9A00"/>
<path d="M328.171 120L248.776 212.367L239.176 223.532L231.079 211.772L240.679 200.599L294.46 138.001L310.008 120H328.171Z" fill="#FF9A00"/>
</svg>
