<svg width="458" height="458" viewBox="0 0 458 458" fill="none" xmlns="http://www.w3.org/2000/svg">
<circle cx="229" cy="229" r="219.5" fill="#700707" stroke="white" stroke-width="19"/>
<path d="M343.548 138.105C342.723 135.674 341.74 135.034 340.203 134.426C336.842 133.179 331.15 135.066 331.15 135.066C331.15 135.066 129.628 207.616 118.115 215.645C115.636 217.373 114.806 218.396 114.394 219.58C112.404 225.274 118.604 227.801 118.604 227.801L170.546 244.755C170.546 244.755 172.482 245.043 173.172 244.595C184.988 237.11 292.056 169.422 298.231 167.151C299.205 166.863 299.927 167.183 299.736 167.854C297.263 176.555 204.27 259.31 204.27 259.31C204.27 259.31 203.915 259.757 203.691 260.269L203.57 260.205L198.724 311.803C198.724 311.803 196.692 327.605 212.476 311.803C223.612 300.639 234.387 291.298 239.779 286.788C257.639 299.135 276.86 312.794 285.156 319.928C289.322 323.511 292.807 324.086 295.676 323.99C303.55 323.703 305.748 315.034 305.748 315.034C305.748 315.034 342.471 167.023 343.698 147.19C343.819 145.238 343.985 144.023 343.998 142.679C344.02 140.824 343.848 138.969 343.548 138.105Z" fill="#FF9A00"/>
</svg>
