<svg width="458" height="458" viewBox="0 0 458 458" fill="none" xmlns="http://www.w3.org/2000/svg">
<circle cx="229" cy="229" r="219.5" fill="#700707" stroke="white" stroke-width="19"/>
<path d="M124 160.264V229.542L155.392 216.011V179.207L192.737 199.774L226.294 183.537L155.392 145.109L124 160.264Z" fill="#FF9A00"/>
<path d="M229.541 106.681L175.959 134.825L211.681 153.768L229.541 144.567L246.32 153.768L284.206 134.825L229.541 106.681Z" fill="#FF9A00"/>
<path d="M306.397 147.273L269.051 165.134L293.407 180.289L124 256.603V298.278L149.979 311.809L186.783 293.407L164.052 280.418L334 201.938V161.346L306.397 147.273Z" fill="#FF9A00"/>
<path d="M334 296.655V228.459L302.067 241.99V278.253L264.722 258.768L231.165 275.547L303.149 312.892L334 296.655Z" fill="#FF9A00"/>
<path d="M210.057 306.938L175.959 323.176L229.541 351.32L284.748 323.176L250.65 306.938L229.541 315.057L210.057 306.938Z" fill="#FF9A00"/>
</svg>
